HIERARCHY
ROOT Hips
{
	OFFSET 0.000000 0.000000 0.000000
	CHANNELS 6 Xposition Yposition Zposition Xrotation Yrotation Zrotation
	JOINT LeftUpLeg_virtual
	{
		OFFSET 0.000000 0.000000 0.000000
		CHANNELS 3 Xrotation Yrotation Zrotation
		JOINT LeftUpLeg
		{
			OFFSET 10.205400 -3.823500 0.155100
			CHANNELS 3 Xrotation Yrotation Zrotation
			JOINT LeftLeg
			{
				OFFSET 0.708757 -12.982077 0.567790
				CHANNELS 3 Xrotation Yrotation Zrotation
				JOINT LeftFoot
				{
					OFFSET -0.708756 -10.717838 -2.184338
					CHANNELS 3 Xrotation Yrotation Zrotation
					JOINT LeftToeBase
					{
						OFFSET 0.108149 -7.191104 7.560241
						CHANNELS 3 Xrotation Yrotation Zrotation
						JOINT LeftToe_End
						{
							OFFSET 0.070230 0.081724 4.490308
							CHANNELS 3 Xrotation Yrotation Zrotation
							End Site
							{
								OFFSET 0 0 0
							}
						}
					}
				}
			}
		}
	}
	JOINT RightUpLeg_virtual
	{
		OFFSET 0.000000 0.000000 0.000000
		CHANNELS 3 Xrotation Yrotation Zrotation
		JOINT RightUpLeg
		{
			OFFSET -10.205400 -3.823500 0.005500
			CHANNELS 3 Xrotation Yrotation Zrotation
			JOINT RightLeg
			{
				OFFSET -0.708756 -12.982134 0.610632
				CHANNELS 3 Xrotation Yrotation Zrotation
				JOINT RightFoot
				{
					OFFSET 0.708754 -10.717769 -1.945823
					CHANNELS 3 Xrotation Yrotation Zrotation
					JOINT RightToeBase
					{
						OFFSET -0.108140 -7.191069 7.372968
						CHANNELS 3 Xrotation Yrotation Zrotation
						JOINT RightToe_End
						{
							OFFSET -0.070227 0.081735 4.479403
							CHANNELS 3 Xrotation Yrotation Zrotation
							End Site
							{
								OFFSET 0 0 0
							}
						}
					}
				}
			}
		}
	}
	JOINT Spine_virtual
	{
		OFFSET 0.000000 0.000000 0.000000
		CHANNELS 3 Xrotation Yrotation Zrotation
		JOINT Spine
		{
			OFFSET 0.000000 6.876099 0.125700
			CHANNELS 3 Xrotation Yrotation Zrotation
			JOINT Spine1
			{
				OFFSET 0.000000 5.730043 0.104720
				CHANNELS 3 Xrotation Yrotation Zrotation
				JOINT Spine1_split
				{
					OFFSET 0.000000 5.730043 0.104720
					CHANNELS 3 Xrotation Yrotation Zrotation
					JOINT Spine2
					{
						OFFSET 0.000000 5.730043 0.104720
						CHANNELS 3 Xrotation Yrotation Zrotation
						JOINT Neck_virtual
						{
							OFFSET 0.000000 0.000000 0.000000
							CHANNELS 3 Xrotation Yrotation Zrotation
							JOINT Neck
							{
								OFFSET 0.000000 10.314075 0.188496
								CHANNELS 3 Xrotation Yrotation Zrotation
								JOINT Head
								{
									OFFSET 0.000000 7.643700 -2.377400
									CHANNELS 3 Xrotation Yrotation Zrotation
									JOINT HeadTop_End
									{
										OFFSET 0.000000 43.788605 -13.619600
										CHANNELS 3 Xrotation Yrotation Zrotation
										End Site
										{
											OFFSET 0 0 0
										}
									}
								}
							}
						}
						JOINT LeftShoulder_virtual
						{
							OFFSET 0.000000 0.000000 0.000000
							CHANNELS 3 Xrotation Yrotation Zrotation
							JOINT LeftShoulder
							{
								OFFSET 2.196100 4.412489 0.087492
								CHANNELS 3 Xrotation Yrotation Zrotation
								JOINT LeftShoulder_split
								{
									OFFSET 2.196100 4.412489 0.087492
									CHANNELS 3 Xrotation Yrotation Zrotation
									JOINT LeftArm
									{
										OFFSET 8.771219 -2.981674 -0.026999
										CHANNELS 3 Xrotation Yrotation Zrotation
										JOINT LeftForeArm
										{
											OFFSET 8.512804 0.000000 -0.000000
											CHANNELS 3 Xrotation Yrotation Zrotation
											JOINT LeftHand
											{
												OFFSET 18.484802 0.000000 -0.000000
												CHANNELS 3 Xrotation Yrotation Zrotation
												End Site
												{
													OFFSET 0 0 0
												}
											}
										}
									}
								}
							}
						}
						JOINT RightShoulder_virtual
						{
							OFFSET 0.000000 0.000000 0.000000
							CHANNELS 3 Xrotation Yrotation Zrotation
							JOINT RightShoulder
							{
								OFFSET -2.196100 4.412496 0.070690
								CHANNELS 3 Xrotation Yrotation Zrotation
								JOINT RightShoulder_split
								{
									OFFSET -2.196100 4.412496 0.070690
									CHANNELS 3 Xrotation Yrotation Zrotation
									JOINT RightArm
									{
										OFFSET -8.771282 -2.981682 -0.094208
										CHANNELS 3 Xrotation Yrotation Zrotation
										JOINT RightForeArm
										{
											OFFSET -8.494598 0.000000 0.000000
											CHANNELS 3 Xrotation Yrotation Zrotation
											JOINT RightHand
											{
												OFFSET -18.483803 0.000000 0.000001
												CHANNELS 3 Xrotation Yrotation Zrotation
												End Site
												{
													OFFSET 0 0 0
												}
											}
										}
									}
								}
							}
						}
					}
				}
			}
		}
	}
}
MOTION
Frames: 9
Frame Time: 0.03333333
2.149569 30.282961 -1.041763 0.000000 0.000000 0.000000 22.489622 12.818341 -3.342129 -66.179636 5.880228 -8.763116 75.312036 10.624346 -5.444024 12.733627 -8.604336 16.674520 2.891885 3.248223 -8.763179 0.000000 0.000000 0.000000 20.967386 9.313460 -2.109543 -17.102882 -17.167663 1.895938 37.635865 8.783333 2.155191 -44.124941 -12.036689 -4.312520 4.150007 4.386236 -12.008151 0.000000 0.000000 0.000000 22.387762 12.773794 -3.984679 4.836313 -1.773943 -0.783733 1.212503 -0.200825 -1.358542 0.025952 -0.301556 0.069769 0.000000 0.000000 0.000000 2.340552 2.727625 -1.265259 -19.950043 11.577818 3.986715 -19.122375 8.940045 -2.394876 0.000000 0.000000 0.000000 1.698469 1.548908 -1.339325 1.062983 3.147122 -16.179706 1.920481 0.703019 -0.854262 7.501715 4.898520 -44.490848 -6.510172 -64.605195 -11.296355 0.000000 0.000000 0.000000 3.596102 1.674287 -1.616303 -3.736655 3.460881 19.147271 1.348871 -3.130287 0.910109 14.881550 -14.963327 46.072881 -9.356201 69.284244 12.931847 0.000000 0.000000 0.000000 
1.826853 30.033825 0.590441 0.000000 0.000000 0.000000 22.253533 11.912914 -3.074180 -67.237796 9.618113 -8.656474 70.185398 12.555576 -4.952900 7.628481 -9.149120 18.331961 1.811027 3.344598 -7.744354 0.000000 0.000000 0.000000 22.303351 8.435572 -1.687382 -16.109058 -16.091022 2.437728 37.747314 8.912598 1.832571 -43.318627 -13.367613 -1.291981 -4.046624 4.966324 -11.841460 0.000000 0.000000 0.000000 23.246551 13.396833 -4.128577 5.121360 -1.532844 -1.034831 1.655951 -0.114874 -1.362508 0.160225 -0.375035 0.122489 0.000000 0.000000 0.000000 2.526804 2.740588 -1.310258 -20.065708 11.470588 4.240875 -19.596948 8.588815 -2.104509 0.000000 0.000000 0.000000 1.712998 1.659648 -1.400824 1.123389 3.295194 -16.094938 1.671711 0.138056 -0.818064 7.318645 5.036039 -44.526034 -6.887762 -64.608822 -11.546321 0.000000 0.000000 0.000000 3.610021 1.704377 -1.643281 -3.874418 3.396032 18.932009 1.350145 -1.991446 0.713038 15.248315 -14.548019 46.827695 -10.525186 70.441851 13.898954 0.000000 0.000000 0.000000 
1.414673 29.812870 2.568956 0.000000 0.000000 0.000000 22.647219 10.536364 -2.794656 -69.336467 13.262433 -7.975363 64.214051 13.622321 -3.173918 3.646927 -9.556206 17.755043 3.282621 3.075436 -4.729668 0.000000 0.000000 0.000000 23.967677 8.795485 -1.908123 -12.151112 -14.602861 3.749046 35.630290 8.503587 1.497742 -45.877168 -14.369251 -0.707863 -4.828248 5.444188 -12.283819 0.000000 0.000000 0.000000 24.178021 13.271147 -4.164654 5.533794 -1.057731 -1.333178 2.114412 0.148126 -1.398174 0.244199 -0.402739 0.131635 0.000000 0.000000 0.000000 2.795866 2.879724 -1.392135 -20.711729 11.170985 4.826199 -20.757254 7.320424 -1.656340 0.000000 0.000000 0.000000 1.664125 1.911727 -1.475656 1.129341 3.482044 -15.991882 1.215009 -0.527225 -0.830007 7.670028 4.822155 -44.849778 -6.906154 -64.604000 -11.367829 0.000000 0.000000 0.000000 3.632783 1.894867 -1.699863 -4.076081 3.335592 18.545125 1.508957 -1.434014 0.656001 16.051672 -14.009728 47.935121 -13.169282 72.047499 16.369310 0.000000 0.000000 0.000000 
1.002948 29.639862 4.710087 0.000000 0.000000 0.000000 23.557874 9.266237 -2.521613 -71.872353 15.564606 -7.510471 58.137853 13.285448 -0.258764 2.502886 -9.683009 15.425806 4.979928 2.681174 0.186813 0.000000 0.000000 0.000000 25.433724 8.965094 -2.358447 -7.171088 -13.267788 4.742400 31.780488 7.902107 1.197565 -49.840368 -14.867572 -1.416429 0.563084 6.044391 -13.294898 0.000000 0.000000 0.000000 25.252058 12.564031 -4.149138 5.851479 -0.478917 -1.682502 2.432348 0.505124 -1.443810 0.170029 -0.339709 0.094841 0.000000 0.000000 0.000000 3.126004 3.113510 -1.472788 -21.679680 10.719117 5.627692 -22.463434 5.396964 -1.092340 0.000000 0.000000 0.000000 1.551881 2.245463 -1.530857 1.093047 3.695870 -15.916212 0.668179 -1.021165 -0.802904 8.372915 4.337246 -45.395869 -6.599459 -64.533096 -10.780386 0.000000 0.000000 0.000000 3.660579 2.165860 -1.778960 -4.303581 3.203529 17.980094 1.763942 -1.369983 0.962103 17.198203 -13.611504 49.038617 -17.421031 73.991890 20.541273 0.000000 0.000000 0.000000 
0.606494 29.508793 6.969213 0.000000 0.000000 0.000000 24.743877 8.113377 -2.296890 -74.268970 16.805694 -7.312000 51.946888 12.111257 2.984155 2.926348 -9.574942 13.293134 4.980199 2.208718 5.947135 0.000000 0.000000 0.000000 26.358383 8.320112 -2.598467 -2.491945 -12.591921 4.693269 27.782028 8.485171 0.919692 -51.758381 -15.057772 -0.475945 5.070330 7.327237 -14.290062 0.000000 0.000000 0.000000 26.502753 11.842243 -4.072032 5.955977 0.080432 -2.078244 2.557363 0.894092 -1.487348 0.108188 -0.148230 0.050224 0.000000 0.000000 0.000000 3.453072 3.389894 -1.531000 -22.649413 10.124807 6.480468 -24.441164 3.131707 -0.470527 0.000000 0.000000 0.000000 1.401251 2.596504 -1.555993 1.028980 3.949569 -15.974911 0.275821 -1.303646 -0.664545 9.030950 3.750871 -46.058725 -6.046125 -64.273337 -9.882929 0.000000 0.000000 0.000000 3.725073 2.446924 -1.869205 -4.512115 2.966740 17.242647 2.052840 -1.415463 1.662586 18.664889 -13.488792 49.824283 -23.323544 76.049594 26.511646 0.000000 0.000000 0.000000 
0.183742 29.336256 8.996181 0.000000 0.000000 0.000000 25.749306 7.115817 -2.041995 -75.805558 17.377907 -7.295543 46.272899 10.443340 5.730600 3.412871 -9.233721 12.240242 4.040659 1.607622 10.582943 0.000000 0.000000 0.000000 26.643280 7.063692 -2.440903 0.914988 -12.756959 3.647195 24.795552 10.530808 0.631584 -49.501974 -15.040893 3.196059 4.188613 9.548965 -14.714145 0.000000 0.000000 0.000000 27.565597 11.067522 -3.854292 5.850456 0.506107 -2.559405 2.461266 1.229890 -1.512299 0.121310 0.072912 -0.006308 0.000000 0.000000 0.000000 3.700047 3.659719 -1.544958 -23.352347 9.549651 7.291070 -26.337387 0.769023 0.214020 0.000000 0.000000 0.000000 1.256685 2.908382 -1.560401 0.944190 4.216003 -16.118147 0.041684 -1.429981 -0.480401 9.252784 3.273597 -46.689336 -5.461564 -63.842331 -8.891704 0.000000 0.000000 0.000000 3.822839 2.700512 -1.953350 -4.693285 2.597172 16.375730 2.082284 -1.193169 2.706528 20.349254 -13.700493 50.087164 -30.301984 77.859328 33.702920 0.000000 0.000000 0.000000 
-0.258087 29.042242 11.069867 0.000000 0.000000 0.000000 25.979782 6.360057 -1.768260 -76.681120 17.432318 -7.282439 42.823070 8.435852 7.312067 3.635198 -8.662794 11.653378 4.285702 1.277108 12.229972 0.000000 0.000000 0.000000 26.411117 5.109431 -1.879823 2.615425 -13.363184 2.182149 23.817537 12.685797 0.281283 -44.283634 -14.609312 7.054994 -1.958010 12.155254 -13.961795 0.000000 0.000000 0.000000 28.113260 10.499161 -3.647354 5.640636 0.760460 -3.096254 2.238438 1.495540 -1.530823 0.149650 0.283971 -0.006272 0.000000 0.000000 0.000000 3.806525 3.871431 -1.527123 -23.796862 9.104738 8.017554 -27.736041 -1.679745 1.007677 0.000000 0.000000 0.000000 1.155417 3.120024 -1.589774 0.847140 4.378671 -16.332956 0.217187 -1.402108 -0.234642 8.890073 3.015485 -47.185723 -4.920681 -63.406313 -7.954769 0.000000 0.000000 0.000000 3.892964 2.903009 -2.027825 -4.865069 2.160176 15.506913 1.467434 -0.657557 3.981482 22.009433 -14.140775 49.840109 -36.889336 79.222196 40.611997 0.000000 0.000000 0.000000 
-0.680318 28.535986 13.127050 0.000000 0.000000 0.000000 25.469606 5.510194 -1.454523 -77.282491 17.131813 -6.575257 43.034297 6.124908 7.532476 3.228256 -8.003331 11.679589 5.281500 1.269684 11.443661 0.000000 0.000000 0.000000 26.048045 3.179358 -1.176698 1.750519 -14.353448 0.159460 27.067893 14.208669 -0.095350 -37.265871 -14.028839 9.645579 -12.103954 13.950191 -11.674723 0.000000 0.000000 0.000000 27.945806 10.306676 -3.525022 5.544759 0.809194 -3.570176 2.075453 1.671969 -1.561326 0.165816 0.384752 0.036068 0.000000 0.000000 0.000000 3.731762 4.006003 -1.512476 -23.938910 8.879479 8.652160 -28.583334 -3.950540 1.881944 0.000000 0.000000 0.000000 1.112422 3.209593 -1.673362 0.768619 4.346549 -16.525173 0.556254 -1.113928 -0.284524 8.097665 3.016912 -47.476734 -4.445564 -63.251500 -7.170421 0.000000 0.000000 0.000000 3.915306 3.057039 -2.072667 -5.037710 1.751610 14.843664 0.541380 -0.054017 5.411899 23.386359 -14.646680 49.189769 -41.092887 80.123870 45.174106 0.000000 0.000000 0.000000 
-1.077410 27.817585 15.059196 0.000000 0.000000 0.000000 24.474047 4.183697 -0.898437 -77.054902 16.801685 -5.294185 46.574889 3.876458 6.747724 1.032767 -7.559367 13.210320 6.119436 1.287644 9.706925 0.000000 0.000000 0.000000 25.182783 1.980982 -0.607595 -3.702060 -15.627608 -3.689315 36.843048 15.806352 -0.381335 -26.819235 -13.268121 12.780950 -21.702919 13.846228 -8.681304 0.000000 0.000000 0.000000 26.875090 10.572828 -3.454450 5.769571 0.605862 -3.897390 2.018081 1.733877 -1.612627 0.143979 0.315347 0.015526 0.000000 0.000000 0.000000 3.492184 4.048076 -1.510069 -23.820585 8.950132 9.098769 -28.994887 -5.822777 2.694727 0.000000 0.000000 0.000000 1.063177 3.188220 -1.786736 0.691292 4.065525 -16.534191 0.854540 -0.714218 -0.634487 7.266707 3.318459 -47.531044 -4.024215 -63.625705 -6.560229 0.000000 0.000000 0.000000 3.864842 3.154151 -2.078088 -5.235552 1.458070 14.450993 -0.071331 0.474335 6.528754 24.137149 -15.091641 48.340995 -41.507531 80.632036 45.892471 0.000000 0.000000 0.000000 
